<svg id="Ebene_1" data-name="Ebene 1" xmlns="http://www.w3.org/2000/svg" xmlns:xlink="http://www.w3.org/1999/xlink" viewBox="0 0 533.62 100.24">
  <defs>
    <clipPath id="clip-path">
      <rect y="60.52" width="532.3" height="44.6" style="fill: none"/>
    </clipPath>
  </defs>
  <path d="M277.6,27.63c-.76-2.5-1.45-5.12-2.05-7.88q-.66,2.37-1.85,7.17l-.54,3.29c-.4,1.39-1.14,2.08-2.21,2.08a2,2,0,0,1-1.6-.69,2.08,2.08,0,0,1-.5-1.39,20.9,20.9,0,0,1,1-5.79q1.5-5.1,1.62-5.66c.28-1.51.57-3,.87-4.52a11.77,11.77,0,0,1,1.42-4.13,2.34,2.34,0,0,1,1.94-1,2.07,2.07,0,0,1,2,1.35A25.24,25.24,0,0,1,279,15.64a74.75,74.75,0,0,0,1.92,8.23q1.67-4.35,3.1-9.55l.82-3.37c.53-1.4,1.34-2.1,2.45-2.1s1.85.81,2.37,2.44A22.94,22.94,0,0,1,290.3,15a76.14,76.14,0,0,0,2.14,10.69q1.31,4.53,1.3,4.92a1.82,1.82,0,0,1-.69,1.45,2.24,2.24,0,0,1-1.45.53c-1.06,0-1.85-.76-2.37-2.29l-.82-3.54q-.71-2.64-1.52-7.57-.66,2-2.19,6.16l-.87,2.7a16,16,0,0,1-1.13,2.62A2.39,2.39,0,0,1,280.53,32a2.3,2.3,0,0,1-2.11-1.62l-.82-2.73Zm30.74,4.5a4.2,4.2,0,0,1-2.14-1.3,19,19,0,0,1-2.38,1,5.82,5.82,0,0,1-1.74.33,6.89,6.89,0,0,1-5.29-1.89Q295,28.35,295,24.59a8.1,8.1,0,0,1,2.61-6.05A8.7,8.7,0,0,1,303.87,16a8.38,8.38,0,0,1,3.22.78c1.48.63,2.21,1.36,2.21,2.19a1.39,1.39,0,0,1-.33.92,8.8,8.8,0,0,0-.23,1.46,20.48,20.48,0,0,0-.08,2.05,14.52,14.52,0,0,0,.39,4c0,.08.26.59.68,1.5a7.74,7.74,0,0,1,.57,1.43,1.62,1.62,0,0,1-.59,1.27A2.06,2.06,0,0,1,308.34,32.13Zm-3.2-4.67a46.79,46.79,0,0,1-.44-5.22c0-.31,0-.67.07-1.07s.11-.86.2-1.36a2.82,2.82,0,0,0-.52-.21,1.24,1.24,0,0,0-.39-.07,4.69,4.69,0,0,0-3.49,1.56,5.1,5.1,0,0,0-1.49,3.61,5.06,5.06,0,0,0,.7,2.95,2.42,2.42,0,0,0,2.11,1,4.9,4.9,0,0,0,1.72-.3,5.37,5.37,0,0,0,1.53-.88Zm11.75,1.71c0,1.86-.68,2.78-2,2.78a2,2,0,0,1-1.45-.55,1.92,1.92,0,0,1-.57-1.44V9.7a1.78,1.78,0,0,1,.62-1.39,2.16,2.16,0,0,1,1.45-.5,2,2,0,0,1,1.42.52,1.81,1.81,0,0,1,.56,1.37Zm15.41,1.95A10.88,10.88,0,0,1,328,32a9.3,9.3,0,0,1-5.73-1.67,6.13,6.13,0,0,1-2.46-5.2,10.06,10.06,0,0,1,1.95-6.27A6.94,6.94,0,0,1,327.55,16a9.58,9.58,0,0,1,4.23.82A3.54,3.54,0,0,1,334,20.21a3.49,3.49,0,0,1-1.81,2.85,22.58,22.58,0,0,1-3.29,1.67L324,26.92a4.63,4.63,0,0,0,1.7,1.14,6.51,6.51,0,0,0,2.29.38,6.38,6.38,0,0,0,3.32-.81,4.15,4.15,0,0,1,2-.71c1,0,1.52.49,1.52,1.47s-.81,2-2.44,2.73Zm-2.19-11a5.14,5.14,0,0,0-2.56-.56,3.27,3.27,0,0,0-2.33.91,6.39,6.39,0,0,0-1.55,2.72l3.3-1.42a23.63,23.63,0,0,0,3.14-1.65Zm19.51-.34c0,.5,0,.83,0,1-.09,1.5-.77,2.24-2,2.24a1.65,1.65,0,0,1-1.84-1.9l-.08-1.48A6,6,0,0,0,340.94,23v7.37a1.85,1.85,0,0,1-.57,1.39,2,2,0,0,1-1.45.55,1.78,1.78,0,0,1-1.41-.59,2,2,0,0,1-.46-1.35V20.78c0-.31,0-.76,0-1.36s0-1.05,0-1.35a2,2,0,0,1,.5-1.37,1.74,1.74,0,0,1,1.39-.55,1.81,1.81,0,0,1,1.94,1.67,9.41,9.41,0,0,1,5.75-1.94c2,0,2.93,1.3,2.93,3.9Zm13.85,11.34a10.88,10.88,0,0,1-4.35.88,9.3,9.3,0,0,1-5.73-1.67,6.13,6.13,0,0,1-2.46-5.2,10.06,10.06,0,0,1,1.95-6.27A6.94,6.94,0,0,1,358.72,16a9.58,9.58,0,0,1,4.23.82,3.54,3.54,0,0,1,2.22,3.37,3.49,3.49,0,0,1-1.81,2.85,22.58,22.58,0,0,1-3.29,1.67l-4.94,2.19a4.63,4.63,0,0,0,1.7,1.14,6.51,6.51,0,0,0,2.29.38,6.38,6.38,0,0,0,3.32-.81,4.15,4.15,0,0,1,1.95-.71c1,0,1.52.49,1.52,1.47s-.81,2-2.44,2.73Zm-2.19-11a5.14,5.14,0,0,0-2.56-.56,3.27,3.27,0,0,0-2.33.91,6.39,6.39,0,0,0-1.55,2.72l3.3-1.42a23.63,23.63,0,0,0,3.14-1.65Zm11.81,4.33c0,.56,0,1.45.05,2.68s.05,2.13.05,2.69a1.84,1.84,0,0,1-.57,1.39,2.19,2.19,0,0,1-2.9,0,1.84,1.84,0,0,1-.57-1.39c0-.56,0-1.45,0-2.69s-.05-2.12-.05-2.68c0-.86,0-1.95.14-3.26s.15-2.4.15-3.27a1.86,1.86,0,0,1,.57-1.4,2.19,2.19,0,0,1,2.9,0,1.86,1.86,0,0,1,.57,1.4c0,.87-.05,2-.14,3.27S373.09,23.59,373.09,24.45Zm-1.25-10.73a2.33,2.33,0,0,1-1.62-.63,2.06,2.06,0,0,1,0-3.08,2.33,2.33,0,0,1,1.62-.63,2.29,2.29,0,0,1,1.62.63,2.08,2.08,0,0,1,0,3.08A2.29,2.29,0,0,1,371.84,13.72Z"/>
  <path d="M410.31,10.68a10,10,0,0,1-1.6,5.61,10.49,10.49,0,0,1-4.57,3.79,16.61,16.61,0,0,1-6.89,1.34h-2.84v9.9h-9.28V.52h12.63q6.51,0,9.53,2.47C409.3,4.63,410.31,7.2,410.31,10.68Zm-13.82,4.1q4,0,4-3.78a3.59,3.59,0,0,0-1.1-2.86,4.75,4.75,0,0,0-3.22-1h-1.76v7.6Z" style="fill: #d60012"/>
  <path d="M429.91,31.32l-2.3-6.63a8.34,8.34,0,0,0-1.72-3.08,3.17,3.17,0,0,0-2.31-1.11h-.37V31.32h-9.28V.52h12.33c4.31,0,7.5.7,9.55,2.11A7.18,7.18,0,0,1,438.89,9a8,8,0,0,1-1.79,5.33,10.24,10.24,0,0,1-5.34,3.11v.09A7.52,7.52,0,0,1,435,19.46a12.41,12.41,0,0,1,2.33,4l3,7.84Zm-.88-21a3.22,3.22,0,0,0-.94-2.45,4.19,4.19,0,0,0-3-.9h-1.91V14h1.68a4.21,4.21,0,0,0,3-1.06A3.44,3.44,0,0,0,429,10.29Z" style="fill: #2323dc"/>
  <path d="M473.23,15.83a17.08,17.08,0,0,1-2,8.31,14.3,14.3,0,0,1-5.59,5.69,16.9,16.9,0,0,1-15.93.07,13.94,13.94,0,0,1-5.53-5.53,16.24,16.24,0,0,1-2-8,17.8,17.8,0,0,1,2-8.47,14.21,14.21,0,0,1,5.61-5.81A16.26,16.26,0,0,1,458,0a15.88,15.88,0,0,1,7.92,2,13.36,13.36,0,0,1,5.39,5.6A17.55,17.55,0,0,1,473.23,15.83Zm-9.84.26a10.64,10.64,0,0,0-1.46-6,4.55,4.55,0,0,0-4-2.19,5.06,5.06,0,0,0-4.32,2.1,9.93,9.93,0,0,0-1.55,6,9.77,9.77,0,0,0,1.54,5.87,4.89,4.89,0,0,0,4.18,2.1,4.79,4.79,0,0,0,2.9-.94,6.09,6.09,0,0,0,2-2.71A11.24,11.24,0,0,0,463.39,16.09Z" style="fill: #008a00"/>
  <path d="M500.55,30.49a26.2,26.2,0,0,1-8.83,1.37A18,18,0,0,1,483.24,30a12.79,12.79,0,0,1-5.45-5.35,16.56,16.56,0,0,1-1.88-8A17.54,17.54,0,0,1,478,8a14.53,14.53,0,0,1,6-5.88A18.36,18.36,0,0,1,492.82,0a30.5,30.5,0,0,1,7.73,1V9.54a10.58,10.58,0,0,0-3.07-1.2,15.17,15.17,0,0,0-3.61-.43,8.06,8.06,0,0,0-6,2.17A7.93,7.93,0,0,0,485.73,16a7.82,7.82,0,0,0,2.18,5.84,8,8,0,0,0,5.83,2.13,15.07,15.07,0,0,0,6.81-1.72Z" style="fill: #fc0"/>
  <path d="M522.37,31.32l-6.84-13a14.23,14.23,0,0,1-.81-2.12h-.11V31.32h-9.28V.52h9.28V15.17h.11a16.35,16.35,0,0,1,.92-2.15L521.79.52h11L524,15.21l9.58,16.11Z" style="fill: #d60012"/>
  <path d="M9.45,57.52v-10h6.76v1.19H10.77v3.1h4.71V53H10.77v4.55Zm13.84,0a2.38,2.38,0,0,1-.24-.89,4.63,4.63,0,0,1-1.32.82,3.78,3.78,0,0,1-1.36.24,2.66,2.66,0,0,1-1.84-.59,1.94,1.94,0,0,1-.64-1.49,2,2,0,0,1,.24-1,2.1,2.1,0,0,1,.64-.71,2.88,2.88,0,0,1,.89-.4,7.53,7.53,0,0,1,1.09-.19,11.76,11.76,0,0,0,2.19-.42c0-.17,0-.28,0-.32a1.35,1.35,0,0,0-.35-1.06,2,2,0,0,0-1.4-.42,2.18,2.18,0,0,0-1.28.3,1.84,1.84,0,0,0-.61,1.08l-1.21-.16a2.94,2.94,0,0,1,.54-1.25,2.36,2.36,0,0,1,1.09-.73,4.84,4.84,0,0,1,1.65-.26,4.27,4.27,0,0,1,1.51.22,1.9,1.9,0,0,1,.85.55,1.93,1.93,0,0,1,.39.84,7,7,0,0,1,.06,1.13v1.64a15.77,15.77,0,0,0,.08,2.17,2.45,2.45,0,0,0,.31.87Zm-.35-3.64a9.05,9.05,0,0,1-2,.47,4.67,4.67,0,0,0-1.07.24,1.06,1.06,0,0,0-.48.4,1,1,0,0,0-.18.59,1.06,1.06,0,0,0,.38.82,1.65,1.65,0,0,0,1.09.32,2.5,2.5,0,0,0,1.26-.31,1.92,1.92,0,0,0,.82-.85,3,3,0,0,0,.19-1.23Zm3.16,1.48,1.22-.19a1.73,1.73,0,0,0,.57,1.12,2,2,0,0,0,1.31.39,1.91,1.91,0,0,0,1.26-.35,1,1,0,0,0,.41-.81.75.75,0,0,0-.36-.66,6.13,6.13,0,0,0-1.26-.41,12.67,12.67,0,0,1-1.88-.59,1.79,1.79,0,0,1-1.06-1.67,1.87,1.87,0,0,1,.22-.9,2,2,0,0,1,.61-.68,2.36,2.36,0,0,1,.78-.36A3.62,3.62,0,0,1,29,50.1a4.07,4.07,0,0,1,1.5.25,2.06,2.06,0,0,1,1,.66,2.73,2.73,0,0,1,.42,1.13l-1.2.16a1.35,1.35,0,0,0-.48-.87,1.73,1.73,0,0,0-1.11-.32,2.07,2.07,0,0,0-1.21.28.83.83,0,0,0-.36.66.68.68,0,0,0,.15.43,1.16,1.16,0,0,0,.47.33c.12,0,.49.15,1.09.31a14.15,14.15,0,0,1,1.82.57,1.94,1.94,0,0,1,.81.65,1.76,1.76,0,0,1,.29,1,2.13,2.13,0,0,1-.35,1.16,2.37,2.37,0,0,1-1,.84,3.73,3.73,0,0,1-1.53.3,3.43,3.43,0,0,1-2.16-.59A2.76,2.76,0,0,1,26.1,55.36Zm7.49,0,1.22-.19a1.73,1.73,0,0,0,.57,1.12,2,2,0,0,0,1.31.39A1.91,1.91,0,0,0,38,56.33a1,1,0,0,0,.41-.81.75.75,0,0,0-.36-.66,6.13,6.13,0,0,0-1.26-.41,12.67,12.67,0,0,1-1.88-.59,1.79,1.79,0,0,1-1.06-1.67,1.87,1.87,0,0,1,.22-.9,2,2,0,0,1,.61-.68,2.36,2.36,0,0,1,.78-.36,3.62,3.62,0,0,1,1.06-.15,4.07,4.07,0,0,1,1.5.25,2.06,2.06,0,0,1,1,.66,2.73,2.73,0,0,1,.42,1.13l-1.2.16a1.35,1.35,0,0,0-.48-.87,1.73,1.73,0,0,0-1.11-.32,2.07,2.07,0,0,0-1.21.28.83.83,0,0,0-.36.66.68.68,0,0,0,.15.43,1.16,1.16,0,0,0,.47.33c.12,0,.49.15,1.09.31a14.15,14.15,0,0,1,1.82.57,1.94,1.94,0,0,1,.81.65,1.76,1.76,0,0,1,.29,1,2.13,2.13,0,0,1-.35,1.16,2.37,2.37,0,0,1-1,.84,3.73,3.73,0,0,1-1.53.3,3.43,3.43,0,0,1-2.16-.59A2.76,2.76,0,0,1,33.59,55.36Zm12.87,2.16a2.38,2.38,0,0,1-.24-.89,4.63,4.63,0,0,1-1.32.82,3.78,3.78,0,0,1-1.36.24,2.66,2.66,0,0,1-1.84-.59,1.94,1.94,0,0,1-.64-1.49,2,2,0,0,1,.24-1,2.1,2.1,0,0,1,.64-.71,2.88,2.88,0,0,1,.89-.4,7.53,7.53,0,0,1,1.09-.19,11.76,11.76,0,0,0,2.19-.42c0-.17,0-.28,0-.32a1.35,1.35,0,0,0-.35-1.06,2,2,0,0,0-1.4-.42,2.18,2.18,0,0,0-1.28.3,1.84,1.84,0,0,0-.61,1.08l-1.21-.16a2.94,2.94,0,0,1,.54-1.25,2.36,2.36,0,0,1,1.09-.73,4.84,4.84,0,0,1,1.65-.26,4.27,4.27,0,0,1,1.51.22,1.9,1.9,0,0,1,.85.55,1.93,1.93,0,0,1,.39.84,7,7,0,0,1,.06,1.13v1.64a15.77,15.77,0,0,0,.08,2.17,2.45,2.45,0,0,0,.31.87Zm-.35-3.64a9.05,9.05,0,0,1-2,.47,4.67,4.67,0,0,0-1.07.24,1.06,1.06,0,0,0-.48.4,1,1,0,0,0-.18.59,1.06,1.06,0,0,0,.38.82,1.65,1.65,0,0,0,1.09.32,2.5,2.5,0,0,0,1.26-.31,1.92,1.92,0,0,0,.82-.85,3,3,0,0,0,.19-1.23Zm8.37,3.64v-.91a2.26,2.26,0,0,1-2,1.08,2.86,2.86,0,0,1-1.6-.48,3.11,3.11,0,0,1-1.13-1.34,4.71,4.71,0,0,1-.4-2,5.2,5.2,0,0,1,.36-2,3,3,0,0,1,1.09-1.36,2.93,2.93,0,0,1,1.62-.47,2.36,2.36,0,0,1,1.17.28,2.32,2.32,0,0,1,.83.72V47.5h1.23v10ZM50.59,53.9A3.12,3.12,0,0,0,51.18,56a1.76,1.76,0,0,0,1.38.69A1.73,1.73,0,0,0,53.93,56a3,3,0,0,0,.57-2,3.34,3.34,0,0,0-.58-2.18,1.74,1.74,0,0,0-1.41-.7,1.68,1.68,0,0,0-1.37.67A3.29,3.29,0,0,0,50.59,53.9ZM63,55.19l1.28.15a3.1,3.1,0,0,1-1.12,1.73,3.76,3.76,0,0,1-4.6-.36A3.85,3.85,0,0,1,57.64,54a4,4,0,0,1,1-2.85,3.2,3.2,0,0,1,2.45-1,3.08,3.08,0,0,1,2.37,1,3.92,3.92,0,0,1,.93,2.79c0,.07,0,.18,0,.33H58.92A2.77,2.77,0,0,0,59.59,56a2,2,0,0,0,1.52.64,1.88,1.88,0,0,0,1.16-.36A2.36,2.36,0,0,0,63,55.19Zm-4-2H63a2.5,2.5,0,0,0-.47-1.38,1.89,1.89,0,0,0-1.52-.71,2,2,0,0,0-1.43.57A2.31,2.31,0,0,0,59,53.2Zm7.36,4.32V50.26h1.11v1a2.6,2.6,0,0,1,2.31-1.2,3,3,0,0,1,1.21.24,1.88,1.88,0,0,1,.82.61,2.4,2.4,0,0,1,.38.91,6.62,6.62,0,0,1,.07,1.2v4.46H71V53.11A3.54,3.54,0,0,0,70.87,52a1.26,1.26,0,0,0-.51-.59,1.6,1.6,0,0,0-.86-.22,2,2,0,0,0-1.36.5,2.45,2.45,0,0,0-.57,1.89v4Zm13.27,0a2.58,2.58,0,0,1-.24-.89,4.63,4.63,0,0,1-1.32.82,3.76,3.76,0,0,1-1.35.24,2.62,2.62,0,0,1-1.84-.59,1.92,1.92,0,0,1-.65-1.49,1.87,1.87,0,0,1,.25-1,2,2,0,0,1,.63-.71,2.88,2.88,0,0,1,.89-.4,7.53,7.53,0,0,1,1.09-.19,11.9,11.9,0,0,0,2.2-.42V52.6a1.31,1.31,0,0,0-.35-1.06,2,2,0,0,0-1.4-.42,2.2,2.2,0,0,0-1.28.3,1.84,1.84,0,0,0-.61,1.08l-1.2-.16A2.94,2.94,0,0,1,75,51.09a2.33,2.33,0,0,1,1.08-.73,4.93,4.93,0,0,1,1.65-.26,4.27,4.27,0,0,1,1.51.22,2,2,0,0,1,.86.55,1.92,1.92,0,0,1,.38.84,7,7,0,0,1,.06,1.13v1.64a17.7,17.7,0,0,0,.08,2.17,2.45,2.45,0,0,0,.31.87Zm-.34-3.64a9.35,9.35,0,0,1-2,.47,4.66,4.66,0,0,0-1.08.24,1.06,1.06,0,0,0-.48.4,1,1,0,0,0-.17.59,1.05,1.05,0,0,0,.37.82,1.65,1.65,0,0,0,1.09.32,2.5,2.5,0,0,0,1.26-.31,1.92,1.92,0,0,0,.82-.85,3,3,0,0,0,.2-1.23Zm3.65,3.64V50.26H84v1a2.6,2.6,0,0,1,2.31-1.2,3,3,0,0,1,1.2.24,1.92,1.92,0,0,1,.83.61,2.4,2.4,0,0,1,.38.91,6.62,6.62,0,0,1,.07,1.2v4.46H87.59V53.11A3.23,3.23,0,0,0,87.44,52a1.16,1.16,0,0,0-.51-.59,1.56,1.56,0,0,0-.85-.22,2,2,0,0,0-1.36.5,2.45,2.45,0,0,0-.57,1.89v4Zm7.79-2.16,1.22-.19a1.73,1.73,0,0,0,.57,1.12,2,2,0,0,0,1.31.39,1.91,1.91,0,0,0,1.26-.35,1,1,0,0,0,.41-.81.75.75,0,0,0-.36-.66,6.13,6.13,0,0,0-1.26-.41A12.67,12.67,0,0,1,92,53.86a1.79,1.79,0,0,1-1.06-1.67,1.87,1.87,0,0,1,.22-.9,2,2,0,0,1,.61-.68,2.36,2.36,0,0,1,.78-.36,3.62,3.62,0,0,1,1.06-.15,4.07,4.07,0,0,1,1.5.25,2.06,2.06,0,0,1,1,.66,2.73,2.73,0,0,1,.42,1.13l-1.2.16a1.35,1.35,0,0,0-.48-.87,1.73,1.73,0,0,0-1.11-.32,2.07,2.07,0,0,0-1.21.28.83.83,0,0,0-.36.66.68.68,0,0,0,.15.43,1.16,1.16,0,0,0,.47.33c.12,0,.49.15,1.09.31a14.15,14.15,0,0,1,1.82.57,1.94,1.94,0,0,1,.81.65,1.76,1.76,0,0,1,.29,1,2.13,2.13,0,0,1-.35,1.16,2.37,2.37,0,0,1-1,.84,3.73,3.73,0,0,1-1.53.3,3.43,3.43,0,0,1-2.16-.59A2.76,2.76,0,0,1,90.71,55.36Zm10.13,1.11a3,3,0,0,0,.54,0l.18,1.09a4.85,4.85,0,0,1-.93.11,2.13,2.13,0,0,1-1-.21,1.22,1.22,0,0,1-.52-.56,4.39,4.39,0,0,1-.15-1.45V51.22H98v-1h.9V48.47l1.23-.74v2.53h1.23v1h-1.23v4.25a2.26,2.26,0,0,0,.06.67.49.49,0,0,0,.21.24.82.82,0,0,0,.42.09ZM103,57.52V50.26h1.1v1.1a3,3,0,0,1,.79-1,1.33,1.33,0,0,1,.79-.25,2.36,2.36,0,0,1,1.26.4l-.42,1.14a1.74,1.74,0,0,0-.9-.27,1.18,1.18,0,0,0-.73.24,1.38,1.38,0,0,0-.46.68,5,5,0,0,0-.2,1.43v3.8Zm5.2-8.6V47.5h1.23v1.42Zm0,8.6V50.26h1.23v7.26Zm8.31-2.66,1.21.16a3.13,3.13,0,0,1-1,2,3,3,0,0,1-2,.71,3.14,3.14,0,0,1-2.4-1,4,4,0,0,1-.9-2.79,5.08,5.08,0,0,1,.39-2.06,2.77,2.77,0,0,1,1.18-1.32,3.6,3.6,0,0,1,1.74-.44,3,3,0,0,1,1.93.6,2.79,2.79,0,0,1,1,1.7l-1.2.18a2,2,0,0,0-.61-1.1,1.57,1.57,0,0,0-1-.37,1.92,1.92,0,0,0-1.52.67,3.2,3.2,0,0,0-.58,2.11,3.28,3.28,0,0,0,.56,2.12,1.83,1.83,0,0,0,1.47.67,1.73,1.73,0,0,0,1.21-.45A2.17,2.17,0,0,0,116.48,54.86Zm2.75,2.66v-10h1.24v3.6a2.72,2.72,0,0,1,2.17-1,3,3,0,0,1,1.4.32,1.81,1.81,0,0,1,.85.88,4,4,0,0,1,.26,1.62v4.6h-1.23v-4.6a1.93,1.93,0,0,0-.4-1.34,1.5,1.5,0,0,0-1.13-.42,2,2,0,0,0-1,.28,1.65,1.65,0,0,0-.69.77,3.5,3.5,0,0,0-.2,1.34v4Zm13.26-2.33,1.27.15a3.08,3.08,0,0,1-1.11,1.73,3.36,3.36,0,0,1-2.08.62,3.32,3.32,0,0,1-2.52-1,3.81,3.81,0,0,1-.94-2.75,4,4,0,0,1,1-2.85,3.18,3.18,0,0,1,2.44-1,3.1,3.1,0,0,1,2.38,1,3.91,3.91,0,0,1,.92,2.79v.33h-5.42a2.82,2.82,0,0,0,.68,1.83,2,2,0,0,0,1.52.64,1.86,1.86,0,0,0,1.15-.36A2.3,2.3,0,0,0,132.49,55.19Zm-4-2h4.06a2.5,2.5,0,0,0-.47-1.38,1.89,1.89,0,0,0-1.52-.71,2,2,0,0,0-1.43.57A2.26,2.26,0,0,0,128.45,53.2Zm11.26,1.32V53.28h3.78v1.24Zm10.33,3v-10h1.33v10Zm4,0V50.26h1.11v1a2.6,2.6,0,0,1,2.31-1.2,3,3,0,0,1,1.2.24,1.92,1.92,0,0,1,.83.61,2.4,2.4,0,0,1,.38.91,7.72,7.72,0,0,1,.07,1.2v4.46h-1.23V53.11a3.23,3.23,0,0,0-.15-1.13,1.16,1.16,0,0,0-.51-.59,1.58,1.58,0,0,0-.85-.22,2,2,0,0,0-1.36.5,2.45,2.45,0,0,0-.57,1.89v4Zm8.29,0V50.26h1.1v1a2.62,2.62,0,0,1,2.31-1.2,3,3,0,0,1,1.21.24,1.83,1.83,0,0,1,.82.61,2.42,2.42,0,0,1,.39.91,7.72,7.72,0,0,1,.07,1.2v4.46H167V53.11a3.23,3.23,0,0,0-.15-1.13,1.16,1.16,0,0,0-.51-.59,1.6,1.6,0,0,0-.86-.22,2,2,0,0,0-1.35.5,2.45,2.45,0,0,0-.57,1.89v4Zm13.25-2.33,1.28.15a3.15,3.15,0,0,1-1.12,1.73,3.76,3.76,0,0,1-4.6-.36A3.85,3.85,0,0,1,170.2,54a4,4,0,0,1,1-2.85,3.2,3.2,0,0,1,2.44-1,3.09,3.09,0,0,1,2.38,1,3.92,3.92,0,0,1,.93,2.79c0,.07,0,.18,0,.33h-5.41a2.77,2.77,0,0,0,.67,1.83,2,2,0,0,0,1.52.64,1.88,1.88,0,0,0,1.16-.36A2.36,2.36,0,0,0,175.58,55.19Zm-4-2h4.06a2.5,2.5,0,0,0-.47-1.38,1.89,1.89,0,0,0-1.52-.71,2,2,0,0,0-1.43.57A2.26,2.26,0,0,0,171.54,53.2Zm7.36,4.32V50.26H180v1a2.6,2.6,0,0,1,2.31-1.2,3,3,0,0,1,1.21.24,1.88,1.88,0,0,1,.82.61,2.4,2.4,0,0,1,.38.91,6.62,6.62,0,0,1,.07,1.2v4.46h-1.23V53.11a3.54,3.54,0,0,0-.14-1.13,1.26,1.26,0,0,0-.51-.59,1.62,1.62,0,0,0-.86-.22,2,2,0,0,0-1.36.5,2.45,2.45,0,0,0-.57,1.89v4Zm13.18,0a2.58,2.58,0,0,1-.25-.89,4.49,4.49,0,0,1-1.32.82,3.76,3.76,0,0,1-1.35.24,2.64,2.64,0,0,1-1.84-.59,1.91,1.91,0,0,1-.64-1.49,2,2,0,0,1,.87-1.68,3,3,0,0,1,.89-.4,7.53,7.53,0,0,1,1.09-.19,11.73,11.73,0,0,0,2.2-.42V52.6a1.35,1.35,0,0,0-.34-1.06,2.08,2.08,0,0,0-1.41-.42,2.22,2.22,0,0,0-1.28.3,1.89,1.89,0,0,0-.61,1.08l-1.2-.16a2.94,2.94,0,0,1,.54-1.25,2.33,2.33,0,0,1,1.08-.73,4.93,4.93,0,0,1,1.65-.26,4.27,4.27,0,0,1,1.51.22,2,2,0,0,1,.86.55,1.92,1.92,0,0,1,.38.84,7,7,0,0,1,.06,1.13v1.64a17.7,17.7,0,0,0,.08,2.17,2.66,2.66,0,0,0,.31.87Zm-.35-3.64a9.35,9.35,0,0,1-2,.47,4.66,4.66,0,0,0-1.08.24,1.06,1.06,0,0,0-.48.4,1,1,0,0,0-.17.59,1.05,1.05,0,0,0,.37.82,1.65,1.65,0,0,0,1.09.32,2.54,2.54,0,0,0,1.27-.31,1.9,1.9,0,0,0,.81-.85,3,3,0,0,0,.2-1.23Zm3.65,3.64V50.26h1.11v1a2.6,2.6,0,0,1,2.31-1.2,2.92,2.92,0,0,1,1.2.24,1.86,1.86,0,0,1,.83.61,2.4,2.4,0,0,1,.38.91,6.62,6.62,0,0,1,.07,1.2v4.46h-1.23V53.11a3.54,3.54,0,0,0-.14-1.13,1.26,1.26,0,0,0-.51-.59,1.62,1.62,0,0,0-.86-.22,2,2,0,0,0-1.36.5,2.45,2.45,0,0,0-.57,1.89v4Zm7.8-2.16,1.21-.19a1.73,1.73,0,0,0,.57,1.12,2,2,0,0,0,1.31.39,1.91,1.91,0,0,0,1.26-.35,1,1,0,0,0,.41-.81.75.75,0,0,0-.36-.66,6.13,6.13,0,0,0-1.26-.41,12.67,12.67,0,0,1-1.88-.59,1.91,1.91,0,0,1-.79-.69,1.85,1.85,0,0,1-.27-1,1.89,1.89,0,0,1,.83-1.58,2.36,2.36,0,0,1,.78-.36,3.67,3.67,0,0,1,1.06-.15,4.07,4.07,0,0,1,1.5.25,2,2,0,0,1,1,.66,2.73,2.73,0,0,1,.42,1.13l-1.2.16a1.31,1.31,0,0,0-.48-.87,1.73,1.73,0,0,0-1.11-.32,2.07,2.07,0,0,0-1.21.28.83.83,0,0,0-.36.66.68.68,0,0,0,.15.43,1.16,1.16,0,0,0,.47.33c.13,0,.49.15,1.09.31a14.15,14.15,0,0,1,1.82.57,1.82,1.82,0,0,1,.81.65,1.76,1.76,0,0,1,.3,1,2.06,2.06,0,0,1-.36,1.16,2.37,2.37,0,0,1-1,.84,3.73,3.73,0,0,1-1.53.3,3.45,3.45,0,0,1-2.16-.59A2.71,2.71,0,0,1,203.18,55.36Zm10.12,1.11a3,3,0,0,0,.54,0l.18,1.09a4.68,4.68,0,0,1-.93.11,2.15,2.15,0,0,1-1-.21,1.22,1.22,0,0,1-.52-.56,4.39,4.39,0,0,1-.15-1.45V51.22h-.9v-1h.9V48.47l1.23-.74v2.53h1.23v1h-1.23v4.25a2.26,2.26,0,0,0,.06.67.61.61,0,0,0,.21.24.82.82,0,0,0,.42.09Zm2.23,1.05V50.26h1.1v1.1a3,3,0,0,1,.79-1,1.33,1.33,0,0,1,.79-.25,2.36,2.36,0,0,1,1.26.4l-.42,1.14a1.74,1.74,0,0,0-.91-.27,1.18,1.18,0,0,0-.72.24,1.38,1.38,0,0,0-.46.68,5,5,0,0,0-.2,1.43v3.8Zm5.2-8.6V47.5H222v1.42Zm0,8.6V50.26H222v7.26ZM229,54.86l1.21.16a3.13,3.13,0,0,1-1,2,3,3,0,0,1-2,.71,3.14,3.14,0,0,1-2.4-1,4,4,0,0,1-.9-2.79,5.08,5.08,0,0,1,.39-2.06,2.77,2.77,0,0,1,1.18-1.32,3.57,3.57,0,0,1,1.74-.44,3,3,0,0,1,1.93.6,2.79,2.79,0,0,1,1,1.7l-1.2.18a2,2,0,0,0-.61-1.1,1.6,1.6,0,0,0-1.05-.37,1.9,1.9,0,0,0-1.51.67,3.2,3.2,0,0,0-.58,2.11,3.28,3.28,0,0,0,.56,2.12,1.82,1.82,0,0,0,1.47.67,1.73,1.73,0,0,0,1.21-.45A2.22,2.22,0,0,0,229,54.86Zm2.75,2.66v-10H233v3.6a2.75,2.75,0,0,1,2.18-1,3,3,0,0,1,1.4.32,1.81,1.81,0,0,1,.85.88,4,4,0,0,1,.26,1.62v4.6h-1.23v-4.6a1.93,1.93,0,0,0-.4-1.34,1.5,1.5,0,0,0-1.13-.42,2,2,0,0,0-1,.28,1.65,1.65,0,0,0-.69.77,3.48,3.48,0,0,0-.21,1.34v4ZM245,55.19l1.28.15a3.15,3.15,0,0,1-1.12,1.73,3.76,3.76,0,0,1-4.6-.36,3.81,3.81,0,0,1-.94-2.75,4,4,0,0,1,1-2.85,3.2,3.2,0,0,1,2.44-1,3.09,3.09,0,0,1,2.38,1,3.92,3.92,0,0,1,.93,2.79c0,.07,0,.18,0,.33h-5.41a2.77,2.77,0,0,0,.67,1.83,2,2,0,0,0,1.52.64,1.84,1.84,0,0,0,1.15-.36A2.3,2.3,0,0,0,245,55.19Zm-4-2H245a2.5,2.5,0,0,0-.47-1.38,1.89,1.89,0,0,0-1.52-.71,2,2,0,0,0-1.43.57A2.26,2.26,0,0,0,240.91,53.2Zm11.27,1.32V53.28H256v1.24Zm14.88-.93V52.42h4.25v3.72a7.45,7.45,0,0,1-2,1.17,6,6,0,0,1-2.13.4,5.74,5.74,0,0,1-2.69-.64,4.18,4.18,0,0,1-1.82-1.83,5.71,5.71,0,0,1-.61-2.67,6.2,6.2,0,0,1,.61-2.73A4,4,0,0,1,264.41,48a5.54,5.54,0,0,1,2.65-.62,5.3,5.3,0,0,1,2,.35,3.35,3.35,0,0,1,1.38,1,4.51,4.51,0,0,1,.76,1.65l-1.2.32a3.73,3.73,0,0,0-.56-1.2,2.31,2.31,0,0,0-1-.7,3.4,3.4,0,0,0-1.38-.26,4.16,4.16,0,0,0-1.57.27,3,3,0,0,0-1.07.73,3.46,3.46,0,0,0-.63,1,5.15,5.15,0,0,0-.38,2,4.86,4.86,0,0,0,.46,2.24,2.9,2.9,0,0,0,1.34,1.34,4.18,4.18,0,0,0,1.87.44,4.41,4.41,0,0,0,1.68-.33,4.29,4.29,0,0,0,1.25-.71V53.59Zm11.51,1.6,1.27.15a3,3,0,0,1-1.12,1.73,3.76,3.76,0,0,1-4.6-.36,3.85,3.85,0,0,1-.93-2.75,4,4,0,0,1,.94-2.85,3.22,3.22,0,0,1,2.45-1,3.12,3.12,0,0,1,2.38,1,4,4,0,0,1,.92,2.79c0,.07,0,.18,0,.33h-5.41a2.72,2.72,0,0,0,.68,1.83,2,2,0,0,0,1.51.64,1.88,1.88,0,0,0,1.16-.36A2.37,2.37,0,0,0,278.57,55.19Zm-4-2h4.05a2.5,2.5,0,0,0-.46-1.38,1.91,1.91,0,0,0-1.53-.71,1.94,1.94,0,0,0-1.42.57A2.22,2.22,0,0,0,274.53,53.2Zm7.24,4.32V50.26h1.11v1.1a2.92,2.92,0,0,1,.78-1,1.35,1.35,0,0,1,.79-.25,2.36,2.36,0,0,1,1.27.4l-.43,1.14a1.74,1.74,0,0,0-.9-.27,1.16,1.16,0,0,0-.72.24,1.32,1.32,0,0,0-.46.68,4.66,4.66,0,0,0-.21,1.43v3.8Zm10,0V56.46a2.67,2.67,0,0,1-2.31,1.23,2.84,2.84,0,0,1-1.2-.25,2,2,0,0,1-.83-.62,2.21,2.21,0,0,1-.37-.91,6.12,6.12,0,0,1-.08-1.15v-4.5h1.23v4a7.06,7.06,0,0,0,.08,1.3,1.24,1.24,0,0,0,.49.76,1.49,1.49,0,0,0,.93.28,2,2,0,0,0,1-.29,1.5,1.5,0,0,0,.68-.77,3.72,3.72,0,0,0,.21-1.42V50.26h1.23v7.26ZM288,48.84v-1.4h1.28v1.4Zm2.55,0v-1.4h1.28v1.4Zm4.24,6.52,1.22-.19a1.73,1.73,0,0,0,.57,1.12,2,2,0,0,0,1.31.39,2,2,0,0,0,1.26-.35,1,1,0,0,0,.41-.81.75.75,0,0,0-.36-.66,6.13,6.13,0,0,0-1.26-.41,12.67,12.67,0,0,1-1.88-.59A1.79,1.79,0,0,1,295,52.19a1.87,1.87,0,0,1,.22-.9,2,2,0,0,1,.61-.68,2.36,2.36,0,0,1,.78-.36,3.62,3.62,0,0,1,1.06-.15,4.07,4.07,0,0,1,1.5.25,2.06,2.06,0,0,1,1,.66,2.73,2.73,0,0,1,.42,1.13l-1.2.16a1.35,1.35,0,0,0-.48-.87,1.73,1.73,0,0,0-1.11-.32,2,2,0,0,0-1.21.28.83.83,0,0,0-.36.66.68.68,0,0,0,.15.43,1.16,1.16,0,0,0,.47.33c.12,0,.49.15,1.09.31a14.71,14.71,0,0,1,1.82.57,1.94,1.94,0,0,1,.81.65,1.83,1.83,0,0,1,.29,1,2.06,2.06,0,0,1-.36,1.16,2.34,2.34,0,0,1-1,.84,3.73,3.73,0,0,1-1.53.3,3.41,3.41,0,0,1-2.16-.59A2.76,2.76,0,0,1,294.76,55.36Zm10.13,1.11a3,3,0,0,0,.54,0l.18,1.09a4.85,4.85,0,0,1-.93.11,2.13,2.13,0,0,1-1-.21,1.17,1.17,0,0,1-.52-.56A4.39,4.39,0,0,1,303,55.4V51.22h-.9v-1h.9V48.47l1.22-.74v2.53h1.24v1h-1.24v4.25a2.14,2.14,0,0,0,.07.67.49.49,0,0,0,.21.24.82.82,0,0,0,.42.09Zm3.37,1.05h-1.14v-10h1.23v3.58a2.44,2.44,0,0,1,2-1,3,3,0,0,1,1.27.27,2.47,2.47,0,0,1,1,.76,3.76,3.76,0,0,1,.61,1.18,5,5,0,0,1,.22,1.47,4.13,4.13,0,0,1-.93,2.89,2.87,2.87,0,0,1-2.21,1,2.31,2.31,0,0,1-2-1.08Zm0-3.68a3.88,3.88,0,0,0,.35,1.89,1.76,1.76,0,0,0,3,.25,4.07,4.07,0,0,0,0-4.19,1.71,1.71,0,0,0-1.36-.68,1.78,1.78,0,0,0-1.39.7A3.05,3.05,0,0,0,308.25,53.84Zm12.15,3.68a2.58,2.58,0,0,1-.25-.89,4.46,4.46,0,0,1-1.31.82,3.81,3.81,0,0,1-1.36.24,2.64,2.64,0,0,1-1.84-.59,1.91,1.91,0,0,1-.64-1.49,2,2,0,0,1,.24-1,1.91,1.91,0,0,1,.64-.71,2.83,2.83,0,0,1,.88-.4,7.72,7.72,0,0,1,1.1-.19,11.76,11.76,0,0,0,2.19-.42c0-.17,0-.28,0-.32a1.35,1.35,0,0,0-.35-1.06,2.05,2.05,0,0,0-1.4-.42,2.18,2.18,0,0,0-1.28.3,1.9,1.9,0,0,0-.62,1.08l-1.2-.16a2.94,2.94,0,0,1,.54-1.25,2.31,2.31,0,0,1,1.09-.73,4.82,4.82,0,0,1,1.64-.26,4.33,4.33,0,0,1,1.52.22,2,2,0,0,1,.85.55,1.92,1.92,0,0,1,.38.84,7,7,0,0,1,.06,1.13v1.64a17.7,17.7,0,0,0,.08,2.17,2.91,2.91,0,0,0,.31.87Zm-.35-3.64a9.35,9.35,0,0,1-2,.47,4.54,4.54,0,0,0-1.07.24,1.14,1.14,0,0,0-.49.4,1.1,1.1,0,0,0-.17.59,1.05,1.05,0,0,0,.37.82,1.67,1.67,0,0,0,1.09.32,2.52,2.52,0,0,0,1.27-.31,1.85,1.85,0,0,0,.81-.85,3,3,0,0,0,.2-1.23Zm8.31,3.64V56.46a2.65,2.65,0,0,1-2.3,1.23,2.84,2.84,0,0,1-1.2-.25,2,2,0,0,1-.83-.62,2.36,2.36,0,0,1-.38-.91,6.34,6.34,0,0,1-.07-1.15v-4.5h1.23v4a7.36,7.36,0,0,0,.07,1.3,1.3,1.3,0,0,0,.5.76,1.49,1.49,0,0,0,.93.28,2,2,0,0,0,1-.29,1.48,1.48,0,0,0,.69-.77,3.75,3.75,0,0,0,.2-1.42V50.26h1.23v7.26Zm7-3.13v-1h7.79v1ZM348,57.52l3.85-10h1.43l4.1,10h-1.51l-1.17-3h-4.19l-1.1,3Zm2.89-4.11h3.4l-1.05-2.78c-.31-.84-.55-1.53-.71-2.07a11.13,11.13,0,0,1-.54,1.91Zm7.81,4.11v-10h1.23v10Zm3.39.61,1.2.17a1.14,1.14,0,0,0,.41.81,2.06,2.06,0,0,0,1.25.34,2.18,2.18,0,0,0,1.32-.34,1.7,1.7,0,0,0,.63-1,7,7,0,0,0,.09-1.58,2.52,2.52,0,0,1-2,1,2.75,2.75,0,0,1-2.32-1.08,4.19,4.19,0,0,1-.82-2.59,4.79,4.79,0,0,1,.38-1.91A2.87,2.87,0,0,1,365,50.1a2.63,2.63,0,0,1,2.12,1v-.88h1.13v6.28a6,6,0,0,1-.34,2.4,2.53,2.53,0,0,1-1.1,1.12,3.82,3.82,0,0,1-1.84.41,3.48,3.48,0,0,1-2.1-.58A2,2,0,0,1,362.09,58.13Zm1-4.37a3.15,3.15,0,0,0,.57,2.09,1.78,1.78,0,0,0,1.42.66,1.81,1.81,0,0,0,1.42-.66,3,3,0,0,0,.57-2,2.94,2.94,0,0,0-.59-2,1.8,1.8,0,0,0-1.42-.68,1.78,1.78,0,0,0-1.4.67A3,3,0,0,0,363.11,53.76Zm12.46,1.43,1.27.15a3.08,3.08,0,0,1-1.11,1.73,3.76,3.76,0,0,1-4.6-.36,3.81,3.81,0,0,1-.94-2.75,4,4,0,0,1,.95-2.85,3.2,3.2,0,0,1,2.44-1,3.1,3.1,0,0,1,2.38,1,3.92,3.92,0,0,1,.93,2.79c0,.07,0,.18,0,.33h-5.42a2.82,2.82,0,0,0,.68,1.83,2,2,0,0,0,1.52.64,1.84,1.84,0,0,0,1.15-.36A2.3,2.3,0,0,0,375.57,55.19Zm-4-2h4.06a2.5,2.5,0,0,0-.47-1.38,1.89,1.89,0,0,0-1.52-.71,2,2,0,0,0-1.43.57A2.26,2.26,0,0,0,371.53,53.2Zm7.36,4.32V50.26H380v1a2.6,2.6,0,0,1,2.31-1.2,3,3,0,0,1,1.21.24,1.88,1.88,0,0,1,.82.61,2.4,2.4,0,0,1,.38.91,6.62,6.62,0,0,1,.07,1.2v4.46h-1.23V53.11a3.54,3.54,0,0,0-.14-1.13,1.26,1.26,0,0,0-.51-.59,1.62,1.62,0,0,0-.86-.22,2,2,0,0,0-1.36.5,2.45,2.45,0,0,0-.57,1.89v4Zm17.43,0V56.46a2.66,2.66,0,0,1-2.3,1.23,2.84,2.84,0,0,1-1.2-.25,1.89,1.89,0,0,1-.83-.62,2.22,2.22,0,0,1-.38-.91,6.12,6.12,0,0,1-.08-1.15v-4.5h1.23v4a7.06,7.06,0,0,0,.08,1.3,1.29,1.29,0,0,0,.49.76,1.49,1.49,0,0,0,.93.28,2,2,0,0,0,1-.29,1.57,1.57,0,0,0,.69-.77,4,4,0,0,0,.2-1.42V50.26h1.23v7.26Zm3.53,0V50.26H401v1a2.6,2.6,0,0,1,2.31-1.2,3,3,0,0,1,1.2.24,1.92,1.92,0,0,1,.83.61,2.4,2.4,0,0,1,.38.91,6.62,6.62,0,0,1,.07,1.2v4.46h-1.23V53.11a3.23,3.23,0,0,0-.15-1.13,1.19,1.19,0,0,0-.5-.59,1.62,1.62,0,0,0-.86-.22,2,2,0,0,0-1.36.5,2.45,2.45,0,0,0-.57,1.89v4Zm13,0v-.91a2.26,2.26,0,0,1-2,1.08,2.86,2.86,0,0,1-1.6-.48,3.18,3.18,0,0,1-1.13-1.34,4.71,4.71,0,0,1-.4-2,5.2,5.2,0,0,1,.36-2,3,3,0,0,1,1.09-1.36,2.93,2.93,0,0,1,1.62-.47,2.36,2.36,0,0,1,1.17.28,2.32,2.32,0,0,1,.83.72V47.5H414v10ZM409,53.9a3.12,3.12,0,0,0,.59,2.09,1.76,1.76,0,0,0,1.38.69A1.73,1.73,0,0,0,412.3,56a3,3,0,0,0,.57-2,3.34,3.34,0,0,0-.58-2.18,1.74,1.74,0,0,0-1.41-.7,1.68,1.68,0,0,0-1.37.67A3.29,3.29,0,0,0,409,53.9Zm11.87,3.62v-10h2l2.37,7.1c.22.66.38,1.15.48,1.48.12-.36.29-.9.53-1.6l2.4-7h1.79v10h-1.28V49.14l-2.91,8.38H425L422.1,49v8.53Zm11.6-3.63a3.71,3.71,0,0,1,1.12-3,3.39,3.39,0,0,1,2.28-.81,3.27,3.27,0,0,1,2.45,1,3.72,3.72,0,0,1,1,2.71,4.83,4.83,0,0,1-.42,2.21,3,3,0,0,1-1.22,1.24,3.55,3.55,0,0,1-1.76.45,3.28,3.28,0,0,1-2.46-1A3.89,3.89,0,0,1,432.43,53.89Zm1.27,0a3.12,3.12,0,0,0,.6,2.09,2,2,0,0,0,3.06,0,3.2,3.2,0,0,0,.61-2.13,3.07,3.07,0,0,0-.61-2,2,2,0,0,0-3.06,0A3.09,3.09,0,0,0,433.7,53.89Zm7,0a3.71,3.71,0,0,1,1.12-3,3.37,3.37,0,0,1,2.28-.81,3.27,3.27,0,0,1,2.45,1,3.76,3.76,0,0,1,.95,2.71A4.83,4.83,0,0,1,447.1,56a3,3,0,0,1-1.22,1.24,3.55,3.55,0,0,1-1.76.45,3.28,3.28,0,0,1-2.46-1A3.89,3.89,0,0,1,440.72,53.89Zm1.26,0a3.12,3.12,0,0,0,.61,2.09,1.94,1.94,0,0,0,1.53.7,2,2,0,0,0,1.53-.7,3.2,3.2,0,0,0,.61-2.13,3,3,0,0,0-.62-2,1.93,1.93,0,0,0-1.52-.69,2,2,0,0,0-1.53.69A3.09,3.09,0,0,0,442,53.89Zm7,1.47,1.22-.19a1.73,1.73,0,0,0,.57,1.12,2,2,0,0,0,1.31.39,2,2,0,0,0,1.26-.35,1,1,0,0,0,.41-.81.74.74,0,0,0-.37-.66,5.74,5.74,0,0,0-1.25-.41,12.27,12.27,0,0,1-1.88-.59,1.79,1.79,0,0,1-1.06-1.67,1.87,1.87,0,0,1,.22-.9,2.06,2.06,0,0,1,.6-.68,2.53,2.53,0,0,1,.79-.36,3.62,3.62,0,0,1,1.06-.15,4.07,4.07,0,0,1,1.5.25,2,2,0,0,1,.95.66,2.6,2.6,0,0,1,.43,1.13l-1.2.16a1.35,1.35,0,0,0-.48-.87,1.73,1.73,0,0,0-1.11-.32,2,2,0,0,0-1.21.28.83.83,0,0,0-.36.66.68.68,0,0,0,.15.43,1.09,1.09,0,0,0,.47.33c.12,0,.48.15,1.09.31a14.71,14.71,0,0,1,1.82.57,1.94,1.94,0,0,1,.81.65,1.83,1.83,0,0,1,.29,1,2.06,2.06,0,0,1-.36,1.16,2.34,2.34,0,0,1-1,.84,3.73,3.73,0,0,1-1.53.3,3.41,3.41,0,0,1-2.16-.59A2.71,2.71,0,0,1,449,55.36Zm12.95-.17,1.28.15a3.1,3.1,0,0,1-1.12,1.73,3.76,3.76,0,0,1-4.6-.36,3.85,3.85,0,0,1-.94-2.75,4,4,0,0,1,.95-2.85,3.2,3.2,0,0,1,2.45-1,3.08,3.08,0,0,1,2.37,1,3.92,3.92,0,0,1,.93,2.79c0,.07,0,.18,0,.33h-5.41a2.77,2.77,0,0,0,.67,1.83,2,2,0,0,0,1.52.64,1.88,1.88,0,0,0,1.16-.36A2.36,2.36,0,0,0,461.92,55.19Zm-4-2h4.06a2.5,2.5,0,0,0-.47-1.38,1.89,1.89,0,0,0-1.52-.71,2,2,0,0,0-1.43.57A2.31,2.31,0,0,0,457.88,53.2Zm7.26,4.32V50.26h1.11v1a2.62,2.62,0,0,1,2.31-1.2,3,3,0,0,1,1.21.24,1.83,1.83,0,0,1,.82.61,2.42,2.42,0,0,1,.39.91,8.09,8.09,0,0,1,.06,1.2v4.46h-1.23V53.11a3.27,3.27,0,0,0-.14-1.13,1.26,1.26,0,0,0-.51-.59,1.6,1.6,0,0,0-.86-.22,2,2,0,0,0-1.35.5,2.45,2.45,0,0,0-.57,1.89v4Zm10.44-1.05a3,3,0,0,0,.54,0l.18,1.09a4.85,4.85,0,0,1-.93.11,2.1,2.1,0,0,1-1-.21,1.17,1.17,0,0,1-.52-.56,4.39,4.39,0,0,1-.15-1.45V51.22h-.9v-1h.9V48.47l1.22-.74v2.53h1.24v1h-1.24v4.25a1.87,1.87,0,0,0,.07.67.49.49,0,0,0,.21.24.82.82,0,0,0,.42.09Zm2.53,1.05v-6.3H477v-1h1.09v-.77a3.2,3.2,0,0,1,.13-1.08,1.63,1.63,0,0,1,.62-.78,2.26,2.26,0,0,1,1.26-.3,6.25,6.25,0,0,1,1.15.12l-.19,1.08a3.65,3.65,0,0,0-.72-.07,1.09,1.09,0,0,0-.8.24,1.32,1.32,0,0,0-.23.89v.67h1.42v1h-1.42v6.3Zm9.06-2.33,1.27.15a3,3,0,0,1-1.12,1.73,3.76,3.76,0,0,1-4.6-.36,3.85,3.85,0,0,1-.93-2.75,4,4,0,0,1,.94-2.85,3.2,3.2,0,0,1,2.45-1,3.12,3.12,0,0,1,2.38,1,4,4,0,0,1,.92,2.79c0,.07,0,.18,0,.33h-5.41a2.77,2.77,0,0,0,.67,1.83,2.05,2.05,0,0,0,1.52.64,1.88,1.88,0,0,0,1.16-.36A2.37,2.37,0,0,0,487.17,55.19Zm-4-2h4.05a2.5,2.5,0,0,0-.46-1.38,2,2,0,0,0-3-.14A2.22,2.22,0,0,0,483.13,53.2Zm7.34,4.32V50.26h1.11v1.1a2.92,2.92,0,0,1,.78-1,1.33,1.33,0,0,1,.79-.25,2.36,2.36,0,0,1,1.27.4L494,51.64a1.74,1.74,0,0,0-.9-.27,1.21,1.21,0,0,0-.73.24,1.36,1.36,0,0,0-.45.68,4.66,4.66,0,0,0-.21,1.43v3.8Zm5.1,0V50.26h1.1v1A2.62,2.62,0,0,1,499,50.1a3,3,0,0,1,1.21.24A1.83,1.83,0,0,1,501,51a2.42,2.42,0,0,1,.39.91,7.72,7.72,0,0,1,.07,1.2v4.46h-1.23V53.11a3.23,3.23,0,0,0-.15-1.13,1.16,1.16,0,0,0-.51-.59,1.6,1.6,0,0,0-.86-.22,2,2,0,0,0-1.35.5,2.45,2.45,0,0,0-.57,1.89v4Zm13,0V56.46a2.65,2.65,0,0,1-2.3,1.23,2.84,2.84,0,0,1-1.2-.25,2,2,0,0,1-.83-.62,2.36,2.36,0,0,1-.38-.91,6.34,6.34,0,0,1-.07-1.15v-4.5h1.23v4a7.36,7.36,0,0,0,.07,1.3,1.29,1.29,0,0,0,.49.76,1.53,1.53,0,0,0,.93.28,2,2,0,0,0,1-.29,1.48,1.48,0,0,0,.69-.77,3.75,3.75,0,0,0,.2-1.42V50.26h1.23v7.26Zm3.53,0V50.26h1.11v1a2.6,2.6,0,0,1,2.31-1.2,3,3,0,0,1,1.21.24,1.88,1.88,0,0,1,.82.61,2.4,2.4,0,0,1,.38.91,6.62,6.62,0,0,1,.07,1.2v4.46h-1.23V53.11a3.54,3.54,0,0,0-.14-1.13,1.26,1.26,0,0,0-.51-.59,1.62,1.62,0,0,0-.86-.22,2,2,0,0,0-1.36.5,2.45,2.45,0,0,0-.57,1.89v4Zm8.06.61,1.2.17a1.14,1.14,0,0,0,.42.81,2,2,0,0,0,1.25.34,2.18,2.18,0,0,0,1.32-.34,1.7,1.7,0,0,0,.63-1,8.49,8.49,0,0,0,.09-1.58,2.52,2.52,0,0,1-2,1,2.75,2.75,0,0,1-2.32-1.08,4.13,4.13,0,0,1-.82-2.59,4.78,4.78,0,0,1,.37-1.91,3.1,3.1,0,0,1,1.09-1.36,3,3,0,0,1,1.68-.48,2.6,2.6,0,0,1,2.12,1v-.88h1.14v6.28a5.92,5.92,0,0,1-.35,2.4,2.51,2.51,0,0,1-1.09,1.12,3.85,3.85,0,0,1-1.84.41,3.46,3.46,0,0,1-2.1-.58A2,2,0,0,1,520.2,58.13Zm1-4.37a3.15,3.15,0,0,0,.57,2.09,1.86,1.86,0,0,0,2.84,0,3.8,3.8,0,0,0,0-4.05,1.82,1.82,0,0,0-1.43-.68,1.76,1.76,0,0,0-1.39.67A2.9,2.9,0,0,0,521.22,53.76Z"/>
  <g style="clip-path: url(#clip-path)">
    <path d="M248.5,96.38a2.27,2.27,0,0,1,.64-1.68,2,2,0,0,1,1.53-.66,1.51,1.51,0,0,1,1.51,1.17c.31,1,1.31,1.56,3,1.56a12.18,12.18,0,0,0,4.48-1c1.6-.63,2.4-1.51,2.4-2.62a1.55,1.55,0,0,0-.89-1.55,11.31,11.31,0,0,0-3.85-.48,8.79,8.79,0,0,1-4-.93,2.65,2.65,0,0,1-1.69-2.37c0-1.66,1-3.26,3-4.82a10.38,10.38,0,0,1,6.45-2.33,10.1,10.1,0,0,1,3.16.63c1.24.42,1.86.9,1.86,1.45a1.87,1.87,0,0,1-.6,1.23,1.9,1.9,0,0,1-1.45.64,7.94,7.94,0,0,1-1.76-.27,8.21,8.21,0,0,0-1.75-.25,7.56,7.56,0,0,0-3.35.83c-1.12.56-1.68,1.16-1.68,1.82s.55.93,1.65,1.1l2.94.14a8.4,8.4,0,0,1,3.06.66,4.28,4.28,0,0,1,2,1.61,4.48,4.48,0,0,1,.66,2.46,6,6,0,0,1-3.38,5.44,15.88,15.88,0,0,1-7.91,1.9,7.77,7.77,0,0,1-4.47-1.1A3.17,3.17,0,0,1,248.5,96.38Zm17.84-1.22A10,10,0,0,1,268.92,89q2.58-3.21,5.34-3.21a7.66,7.66,0,0,1,3.11.77c1.13.51,1.69,1.1,1.69,1.77a1.75,1.75,0,0,1-.56,1.24,1.85,1.85,0,0,1-1.33.56A1.91,1.91,0,0,1,276,89.6a3.28,3.28,0,0,0-2.21-.6c-.67,0-1.52.7-2.53,2.1a6.48,6.48,0,0,0-1.52,3.49,2.1,2.1,0,0,0,.78,1.69,3.25,3.25,0,0,0,2.18.66,5.18,5.18,0,0,0,2.19-.66,6.5,6.5,0,0,1,1.68-.65,1.34,1.34,0,0,1,1,.43,1.41,1.41,0,0,1,.4,1q0,1.11-2.25,2.1a9.5,9.5,0,0,1-3.54,1,6.19,6.19,0,0,1-4.22-1.37A4.48,4.48,0,0,1,266.34,95.16Zm19.84-9.93c-.16.71-.32,1.54-.47,2.48a6.79,6.79,0,0,1,4.52-1.83,3.86,3.86,0,0,1,2.57.74,3.22,3.22,0,0,1,.85,2.51c0,.25,0,.51,0,.79a45.87,45.87,0,0,0-.52,6.69,15.51,15.51,0,0,0,.06,1.64,1.58,1.58,0,0,1-.54,1.21,2,2,0,0,1-1.52.64,1.33,1.33,0,0,1-1.26-.6,7.35,7.35,0,0,1-.34-2.84,24.34,24.34,0,0,1,.56-5.16,7.8,7.8,0,0,0,.21-1.46c0-.5-.19-.76-.55-.76q-2.19,0-4.74,3.77-.74,4.8-1.4,5.7a2,2,0,0,1-1.65.89,1.58,1.58,0,0,1-1.15-.43,1.35,1.35,0,0,1-.44-1,2,2,0,0,1,.28-.94c.12-.27.43-2,.95-5.23l1.08-6.68.1-.4a13.06,13.06,0,0,0,.44-3.18,4.53,4.53,0,0,1,.22-1.65,1.88,1.88,0,0,1,.74-.83,2.14,2.14,0,0,1,1.15-.33c1,0,1.54.66,1.54,2a20.3,20.3,0,0,1-.65,4.26ZM295,94.86a9.08,9.08,0,0,1,2.3-5.93,7.37,7.37,0,0,1,5.93-2.76,4,4,0,0,1,3.27,1.42,5.63,5.63,0,0,1,1.18,3.74,9.39,9.39,0,0,1-2.17,6,6.73,6.73,0,0,1-5.43,2.7,4.82,4.82,0,0,1-3.67-1.48A5.18,5.18,0,0,1,295,94.86Zm3.55-.51a2.64,2.64,0,0,0,.53,1.72,1.83,1.83,0,0,0,1.52.65,3.06,3.06,0,0,0,2.63-1.39,6.09,6.09,0,0,0,1-3.57c0-1.49-.57-2.24-1.71-2.24a3.35,3.35,0,0,0-2.81,1.62A5.62,5.62,0,0,0,298.51,94.35Zm2.3-9.79c-1.39,0-2.09-.48-2.09-1.44a1.65,1.65,0,0,1,.92-1.49,3.32,3.32,0,0,1,1.59-.54c1.45,0,2.17.49,2.17,1.46a1.61,1.61,0,0,1-1,1.51,4,4,0,0,1-1.56.5Zm3.53-1.42a1.81,1.81,0,0,1,.68-1.39,3.35,3.35,0,0,1,2.24-.61,2.06,2.06,0,0,1,1.29.46,1.28,1.28,0,0,1,.6,1,1.65,1.65,0,0,1-.78,1.35,3.53,3.53,0,0,1-2.1.57,2.2,2.2,0,0,1-1.33-.43A1.23,1.23,0,0,1,304.34,83.14Zm9.6,4.45a6.5,6.5,0,0,1,4.19-1.86c2.13,0,3.2,1.22,3.2,3.68a15.53,15.53,0,0,1-.21,2.35l-.16.91a21,21,0,0,0-.31,3.38,22.16,22.16,0,0,1-.09,2.43,2,2,0,0,1-.66,1.23,1.9,1.9,0,0,1-1.35.53A1.31,1.31,0,0,1,317,98.78a41,41,0,0,1,.19-4.72,30.63,30.63,0,0,1,.64-3.34,5.39,5.39,0,0,0,.17-1c0-.42-.14-.63-.43-.63a3.75,3.75,0,0,0-2.56,1.43,9.58,9.58,0,0,0-2.9,6.71,6,6,0,0,1-.2,1.53,1.81,1.81,0,0,1-.67.81A2,2,0,0,1,310,100a1.56,1.56,0,0,1-1.08-.38,1.28,1.28,0,0,1-.43-1l.11-1.37a30.42,30.42,0,0,1,.81-4.45,32.91,32.91,0,0,0,.79-3.89c.06-.8.13-1.41.2-1.83a1.85,1.85,0,0,1,.69-1.11,2.07,2.07,0,0,1,1.35-.48c1.1,0,1.59.66,1.46,2Zm14.41-2.36c-.16.71-.31,1.54-.47,2.48a6.79,6.79,0,0,1,4.52-1.83,3.85,3.85,0,0,1,2.57.74,3.22,3.22,0,0,1,.85,2.51c0,.25,0,.51,0,.79a45.87,45.87,0,0,0-.52,6.69,15.51,15.51,0,0,0,.06,1.64,1.58,1.58,0,0,1-.54,1.21,2,2,0,0,1-1.51.64,1.33,1.33,0,0,1-1.27-.6,7.42,7.42,0,0,1-.33-2.84,24.33,24.33,0,0,1,.55-5.16,7.8,7.8,0,0,0,.21-1.46c0-.5-.18-.76-.55-.76q-2.19,0-4.73,3.77-.75,4.8-1.41,5.7a2,2,0,0,1-1.65.89,1.58,1.58,0,0,1-1.15-.43,1.35,1.35,0,0,1-.44-1,2,2,0,0,1,.28-.94q.18-.41,1-5.23l1.08-6.68.1-.4a13.11,13.11,0,0,0,.45-3.18,4.58,4.58,0,0,1,.21-1.65,1.91,1.91,0,0,1,.75-.83,2.1,2.1,0,0,1,1.14-.33c1,0,1.54.66,1.54,2a20.3,20.3,0,0,1-.65,4.26ZM340.49,95.5a4,4,0,0,0,3.25,1.32,6.19,6.19,0,0,0,3-.7,4.37,4.37,0,0,1,1.8-.62c.75,0,1.12.32,1.12,1,0,1-.67,1.81-2,2.45a9.89,9.89,0,0,1-4.39,1,7.2,7.2,0,0,1-4.59-1.32A4.28,4.28,0,0,1,337,95.05a9.92,9.92,0,0,1,2.22-6,7,7,0,0,1,5.87-2.93,7.35,7.35,0,0,1,3.74.79,2.5,2.5,0,0,1,1.34,2.26,3,3,0,0,1-1.06,2.33,15.41,15.41,0,0,1-4,2.15Zm4.13-6.37c-1.56,0-2.87,1.05-3.91,3.15l3.08-1.22a29,29,0,0,0,2.95-1.46,4,4,0,0,0-2.12-.47Zm9.43,10.59a1.57,1.57,0,0,1-1.11-.4,1.36,1.36,0,0,1-.42-1l.35-2.59c.23-1.75.54-3.46.92-5.15q.43-1.86.57-2.85a1.9,1.9,0,0,1,.69-1.2,2,2,0,0,1,1.34-.5,1.48,1.48,0,0,1,1.07.39,1.35,1.35,0,0,1,.42,1,21.44,21.44,0,0,1-.56,2.93,45.26,45.26,0,0,0-.85,4.69c-.19,1.5-.33,2.51-.43,3a1.9,1.9,0,0,1-.71,1.2A2,2,0,0,1,354.05,99.72Zm1.32-17.26A2,2,0,0,1,356.1,81a2.35,2.35,0,0,1,1.58-.63,1.76,1.76,0,0,1,1.24.46,1.5,1.5,0,0,1,.5,1.13,2,2,0,0,1-.71,1.5,2.33,2.33,0,0,1-1.62.65,1.69,1.69,0,0,1-1.23-.47A1.51,1.51,0,0,1,355.37,82.46ZM369,89.32h-1q-.9,0-1.5,0a3.57,3.57,0,0,0-.12.4c0,.14-.07.28-.12.42a19.47,19.47,0,0,0-1,5c0,1,.19,1.49.59,1.49a1.84,1.84,0,0,0,1.26-.67,1.78,1.78,0,0,1,1.21-.68,1.5,1.5,0,0,1,1,.44,1.44,1.44,0,0,1,.48,1.14A2.52,2.52,0,0,1,368.28,99a5.7,5.7,0,0,1-2.95.89q-3.54,0-3.54-4.29a20.55,20.55,0,0,1,1.26-6.13,5.7,5.7,0,0,1-2.66-.52,1.61,1.61,0,0,1-.49-1.34,1.64,1.64,0,0,1,.51-1.25,1.9,1.9,0,0,1,1.33-.49l2,.18.31-2.54a1.73,1.73,0,0,1,.6-1.13,1.8,1.8,0,0,1,1.25-.48c1,0,1.51.7,1.51,2.11a18,18,0,0,1-.27,2l.6-.08a6.89,6.89,0,0,1,1.9.1,1.36,1.36,0,0,1,1.2,1.54,1.68,1.68,0,0,1-.55,1.31A1.91,1.91,0,0,1,369,89.32Zm15.94,10.4a1.58,1.58,0,0,1-1.12-.4,1.36,1.36,0,0,1-.42-1l.36-2.59c.23-1.75.53-3.46.91-5.15a26.94,26.94,0,0,0,.57-2.85,1.87,1.87,0,0,1,.7-1.2,2,2,0,0,1,1.34-.5,1.5,1.5,0,0,1,1.07.39,1.38,1.38,0,0,1,.41,1,21.44,21.44,0,0,1-.56,2.93c-.37,1.62-.65,3.18-.84,4.69s-.34,2.51-.43,3a1.94,1.94,0,0,1-.71,1.2A2,2,0,0,1,384.89,99.72Zm1.32-17.26a2,2,0,0,1,.72-1.51,2.4,2.4,0,0,1,1.59-.63,1.76,1.76,0,0,1,1.23.46,1.48,1.48,0,0,1,.51,1.13,2,2,0,0,1-.72,1.5,2.33,2.33,0,0,1-1.62.65,1.65,1.65,0,0,1-1.22-.47A1.48,1.48,0,0,1,386.21,82.46Zm9,5.13a6.48,6.48,0,0,1,4.19-1.86c2.13,0,3.19,1.22,3.19,3.68a15.53,15.53,0,0,1-.21,2.35l-.15.91a20,20,0,0,0-.32,3.38,22.16,22.16,0,0,1-.09,2.43,2,2,0,0,1-.65,1.23,1.94,1.94,0,0,1-1.36.53,1.32,1.32,0,0,1-1.51-1.46,43.45,43.45,0,0,1,.19-4.72,30.63,30.63,0,0,1,.64-3.34,4.86,4.86,0,0,0,.18-1c0-.42-.15-.63-.44-.63a3.77,3.77,0,0,0-2.56,1.43,9.52,9.52,0,0,0-2.89,6.71,6.4,6.4,0,0,1-.21,1.53,1.85,1.85,0,0,1-.66.81,2,2,0,0,1-1.24.39,1.61,1.61,0,0,1-1.09-.38,1.27,1.27,0,0,1-.42-1l.1-1.37a33.47,33.47,0,0,1,.81-4.45,32.91,32.91,0,0,0,.79-3.89q.1-1.2.21-1.83a1.79,1.79,0,0,1,.68-1.11,2.07,2.07,0,0,1,1.36-.48c1.1,0,1.58.66,1.46,2Z"/>
    <polygon points="431.91 80.06 423.7 80.06 422.77 84.59 430.26 84.59 428.95 90.53 421.47 90.53 419.64 99.32 412.05 99.32 417.37 74.12 433.17 74.12 431.91 80.06" style="fill: #d60012"/>
    <path d="M447.89,99.32l-.37-4.64H440l-2.26,4.64h-8.35l14-25.2h9.44l2.85,25.2Zm-1.1-17.71a11.94,11.94,0,0,1,.08-1.73h-.17l-.34.88-.66,1.53-3.06,6.45h4.5l-.34-6.31Z" style="fill: #2323dc"/>
    <path d="M482.63,80.64a6.78,6.78,0,0,1-2,4.9,9.32,9.32,0,0,1-5.27,2.62v.07a5.6,5.6,0,0,1,3.5,4.5l1.41,6.59h-8.07l-.93-5.6a4.84,4.84,0,0,0-1-2.42,2.78,2.78,0,0,0-2.19-.84H468l-1.86,8.86h-7.6l5.33-25.2h9.9a10.94,10.94,0,0,1,6.52,1.7A5.61,5.61,0,0,1,482.63,80.64ZM474.52,82a2.68,2.68,0,0,0-.69-2,2.8,2.8,0,0,0-2.08-.71h-1.36l-1.3,5.77h1.69a4,4,0,0,0,2.72-.9A2.82,2.82,0,0,0,474.52,82Z" style="fill: #008a00"/>
    <path d="M507.51,80A5.14,5.14,0,0,1,505.83,84a9,9,0,0,1-4.61,2.11v.07a5.92,5.92,0,0,1,3.71,1.73,5.15,5.15,0,0,1,1.34,3.65A6.69,6.69,0,0,1,505,95.66a8.35,8.35,0,0,1-3.88,2.71,17.79,17.79,0,0,1-6.23.95H483l5.33-25.2h10.37q4.45,0,6.61,1.44A5,5,0,0,1,507.51,80ZM498.2,91.36a2.21,2.21,0,0,0-.67-1.67,2.59,2.59,0,0,0-1.85-.63h-2.84l-1.16,5.15h2.67a4.64,4.64,0,0,0,2.83-.77A2.46,2.46,0,0,0,498.2,91.36Zm1.26-9.86a2,2,0,0,0-.71-1.78,4.32,4.32,0,0,0-2.47-.52h-1.39l-1,4.76h2.38a3.62,3.62,0,0,0,2.31-.72A2.16,2.16,0,0,0,499.46,81.5Z" style="fill: #fc0"/>
    <polygon points="528.1 80.06 520 80.06 519.24 83.73 526.84 83.73 525.59 89.67 518 89.67 517.2 93.38 525.87 93.38 524.61 99.32 508.35 99.32 513.67 74.12 529.37 74.12 528.1 80.06" style="fill: #d60012"/>
  </g>
  <rect y="42.32" width="532.5" height="0.9"/>
</svg>
